<svg width="33" height="33" viewBox="0 0 33 33" fill="none" xmlns="http://www.w3.org/2000/svg">
<circle cx="16.5" cy="16.5" r="16.5" fill="#323232"/>
<path d="M23.2704 13.5383L21.5823 23.1388C21.5134 23.5309 21.3085 23.8861 21.0037 24.1421C20.6988 24.398 20.3134 24.5383 19.9154 24.5383H13.0869C12.6888 24.5383 12.3035 24.398 11.9986 24.1421C11.6937 23.8861 11.4888 23.5309 11.42 23.1388L9.7319 13.5383M24.1165 10.9998H19.3569H24.1165ZM8.88574 10.9998H13.6454H8.88574ZM13.6454 10.9998V9.30754C13.6454 8.85871 13.8237 8.42827 14.141 8.1109C14.4584 7.79353 14.8888 7.61523 15.3377 7.61523H17.6646C18.1134 7.61523 18.5439 7.79353 18.8612 8.1109C19.1786 8.42827 19.3569 8.85871 19.3569 9.30754V10.9998M13.6454 10.9998H19.3569H13.6454Z" fill="white"/>
<path d="M23.2704 13.5383L21.5823 23.1388C21.5134 23.5309 21.3085 23.8861 21.0037 24.1421C20.6988 24.398 20.3134 24.5383 19.9154 24.5383H13.0869C12.6888 24.5383 12.3035 24.398 11.9986 24.1421C11.6937 23.8861 11.4888 23.5309 11.42 23.1388L9.7319 13.5383M24.1165 10.9998H19.3569M19.3569 10.9998V9.30754C19.3569 8.85871 19.1786 8.42827 18.8612 8.1109C18.5439 7.79353 18.1134 7.61523 17.6646 7.61523H15.3377C14.8888 7.61523 14.4584 7.79353 14.141 8.1109C13.8237 8.42827 13.6454 8.85871 13.6454 9.30754V10.9998M19.3569 10.9998H13.6454M8.88574 10.9998H13.6454" stroke="white" stroke-width="1.42769" stroke-linecap="round" stroke-linejoin="round"/>
</svg>
